<?xml version="1.0" encoding="UTF-8" standalone="no"?>
<!DOCTYPE svg PUBLIC "-//W3C//DTD SVG 1.1//EN"
 "http://www.w3.org/Graphics/SVG/1.1/DTD/svg11.dtd">
<!-- Generated by graphviz version 2.43.0 (0)
 -->
<!-- Title: example_nfa_ends_in_ab Pages: 1 -->
<svg width="277pt" height="89pt"
 viewBox="0.00 0.00 277.49 89.50" xmlns="http://www.w3.org/2000/svg" xmlns:xlink="http://www.w3.org/1999/xlink">
<g id="graph0" class="graph" transform="scale(1 1) rotate(0) translate(4 85.5)">
<title>example_nfa_ends_in_ab</title>
<!-- __start -->
<!-- q0 -->
<g id="node3" class="node">
<title>q0</title>
<ellipse fill="#eeecfb" stroke="#8c82d0" cx="59.75" cy="-26.75" rx="23" ry="23"/>
<text text-anchor="middle" x="59.75" y="-23.05" font-family="Helvetica,sans-Serif" font-size="14.00" fill="#3b3480">q0</text>
</g>
<!-- __start&#45;&gt;q0 -->
<g id="edge1" class="edge">
<title>__start&#45;&gt;q0</title>
<path fill="none" stroke="#666666" d="M1.17,-26.75C2.66,-26.75 14.11,-26.75 26.41,-26.75"/>
<polygon fill="#666666" stroke="#666666" points="26.74,-30.25 36.74,-26.75 26.74,-23.25 26.74,-30.25"/>
</g>
<!-- q2 -->
<g id="node2" class="node">
<title>q2</title>
<ellipse fill="#eeecfb" stroke="#8c82d0" cx="242.74" cy="-26.75" rx="22.96" ry="22.96"/>
<ellipse fill="none" stroke="#8c82d0" cx="242.74" cy="-26.75" rx="27" ry="27"/>
<text text-anchor="middle" x="242.74" y="-23.05" font-family="Helvetica,sans-Serif" font-size="14.00" fill="#3b3480">q2</text>
</g>
<!-- q0&#45;&gt;q0 -->
<g id="edge2" class="edge">
<title>q0&#45;&gt;q0</title>
<path fill="none" stroke="#666666" d="M52.4,-48.55C51.59,-58.66 54.04,-67.5 59.75,-67.5 63.4,-67.5 65.72,-63.87 66.7,-58.6"/>
<polygon fill="#666666" stroke="#666666" points="70.2,-58.68 67.1,-48.55 63.21,-58.4 70.2,-58.68"/>
<text text-anchor="middle" x="59.75" y="-71.1" font-family="Courier,monospace" font-size="13.00">a,b</text>
</g>
<!-- q1 -->
<g id="node4" class="node">
<title>q1</title>
<ellipse fill="#eeecfb" stroke="#8c82d0" cx="149.24" cy="-26.75" rx="23" ry="23"/>
<text text-anchor="middle" x="149.24" y="-23.05" font-family="Helvetica,sans-Serif" font-size="14.00" fill="#3b3480">q1</text>
</g>
<!-- q0&#45;&gt;q1 -->
<g id="edge3" class="edge">
<title>q0&#45;&gt;q1</title>
<path fill="none" stroke="#666666" d="M82.83,-26.75C92.96,-26.75 105.16,-26.75 116.26,-26.75"/>
<polygon fill="#666666" stroke="#666666" points="116.48,-30.25 126.48,-26.75 116.48,-23.25 116.48,-30.25"/>
<text text-anchor="middle" x="104.5" y="-30.35" font-family="Courier,monospace" font-size="13.00">a</text>
</g>
<!-- q1&#45;&gt;q2 -->
<g id="edge4" class="edge">
<title>q1&#45;&gt;q2</title>
<path fill="none" stroke="#666666" d="M172.39,-26.75C182.43,-26.75 194.57,-26.75 205.86,-26.75"/>
<polygon fill="#666666" stroke="#666666" points="205.9,-30.25 215.9,-26.75 205.9,-23.25 205.9,-30.25"/>
<text text-anchor="middle" x="193.99" y="-30.35" font-family="Courier,monospace" font-size="13.00">b</text>
</g>
</g>
</svg>
