<?xml version="1.0" encoding="UTF-8" standalone="no"?>
<!DOCTYPE svg PUBLIC "-//W3C//DTD SVG 1.1//EN"
 "http://www.w3.org/Graphics/SVG/1.1/DTD/svg11.dtd">
<!-- Generated by graphviz version 2.43.0 (0)
 -->
<!-- Title: example_dfa_ends_in_ab Pages: 1 -->
<svg width="368pt" height="147pt"
 viewBox="0.00 0.00 368.00 146.50" xmlns="http://www.w3.org/2000/svg" xmlns:xlink="http://www.w3.org/1999/xlink">
<g id="graph0" class="graph" transform="scale(1 1) rotate(0) translate(4 142.5)">
<title>example_dfa_ends_in_ab</title>
<text text-anchor="middle" x="180" y="-7.4" font-family="Helvetica,sans-Serif" font-size="12.00">A = {q0} &#160;&#160;| &#160;&#160;B = {q0, q1} &#160;&#160;| &#160;&#160;C = {q0, q2}</text>
<!-- __start -->
<!-- A -->
<g id="node3" class="node">
<title>A</title>
<ellipse fill="#e2f4ec" stroke="#1f7a52" cx="89.5" cy="-47.5" rx="22.5" ry="22.5"/>
<text text-anchor="middle" x="89.5" y="-43.8" font-family="Helvetica,sans-Serif" font-weight="bold" font-size="14.00" fill="#174d35">A</text>
</g>
<!-- __start&#45;&gt;A -->
<g id="edge1" class="edge">
<title>__start&#45;&gt;A</title>
<path fill="none" stroke="#333333" d="M1.06,-47.5C2.65,-47.5 33.83,-47.5 58.5,-47.5"/>
<polygon fill="#333333" stroke="#333333" points="58.57,-50.3 66.57,-47.5 58.57,-44.7 58.57,-50.3"/>
</g>
<!-- C -->
<g id="node2" class="node">
<title>C</title>
<ellipse fill="#e2f4ec" stroke="#1f7a52" cx="333.5" cy="-47.5" rx="22.5" ry="22.5"/>
<ellipse fill="none" stroke="#1f7a52" cx="333.5" cy="-47.5" rx="26.5" ry="26.5"/>
<text text-anchor="middle" x="333.5" y="-43.8" font-family="Helvetica,sans-Serif" font-weight="bold" font-size="14.00" fill="#174d35">C</text>
</g>
<!-- C&#45;&gt;A -->
<g id="edge7" class="edge">
<title>C&#45;&gt;A</title>
<path fill="none" stroke="#333333" d="M314.14,-66.18C295.39,-83.82 264.49,-109.06 232,-119.5 212.96,-125.62 205.98,-125.8 187,-119.5 157.23,-109.62 129.21,-86.59 111.11,-69.22"/>
<polygon fill="#333333" stroke="#333333" points="113.04,-67.18 105.37,-63.57 109.11,-71.17 113.04,-67.18"/>
<text text-anchor="middle" x="209.5" y="-128.1" font-family="Helvetica,sans-Serif" font-size="13.00" fill="#555555">b</text>
</g>
<!-- B -->
<g id="node4" class="node">
<title>B</title>
<ellipse fill="#e2f4ec" stroke="#1f7a52" cx="209.5" cy="-47.5" rx="22.5" ry="22.5"/>
<text text-anchor="middle" x="209.5" y="-43.8" font-family="Helvetica,sans-Serif" font-weight="bold" font-size="14.00" fill="#174d35">B</text>
</g>
<!-- C&#45;&gt;B -->
<g id="edge6" class="edge">
<title>C&#45;&gt;B</title>
<path fill="none" stroke="#333333" d="M310.7,-33.8C297.67,-27.2 280.65,-21.33 265,-24.5 255.5,-26.42 245.6,-30.05 236.89,-33.87"/>
<polygon fill="#333333" stroke="#333333" points="235.67,-31.35 229.57,-37.23 238.01,-36.43 235.67,-31.35"/>
<text text-anchor="middle" x="269.5" y="-28.1" font-family="Helvetica,sans-Serif" font-size="13.00" fill="#555555">a</text>
</g>
<!-- A&#45;&gt;A -->
<g id="edge2" class="edge">
<title>A&#45;&gt;A</title>
<path fill="none" stroke="#333333" d="M80.73,-68.49C76.73,-86.72 79.66,-106 89.5,-106 97.88,-106 101.25,-92.02 99.59,-76.61"/>
<polygon fill="#333333" stroke="#333333" points="102.32,-75.94 98.27,-68.49 96.79,-76.84 102.32,-75.94"/>
<text text-anchor="middle" x="89.5" y="-109.6" font-family="Helvetica,sans-Serif" font-size="13.00" fill="#555555">b</text>
</g>
<!-- A&#45;&gt;B -->
<g id="edge3" class="edge">
<title>A&#45;&gt;B</title>
<path fill="none" stroke="#333333" d="M112.14,-47.5C130.86,-47.5 158.09,-47.5 178.83,-47.5"/>
<polygon fill="#333333" stroke="#333333" points="178.99,-50.3 186.99,-47.5 178.99,-44.7 178.99,-50.3"/>
<text text-anchor="middle" x="149.5" y="-51.1" font-family="Helvetica,sans-Serif" font-size="13.00" fill="#555555">a</text>
</g>
<!-- B&#45;&gt;C -->
<g id="edge5" class="edge">
<title>B&#45;&gt;C</title>
<path fill="none" stroke="#333333" d="M232.03,-47.5C250.51,-47.5 277.46,-47.5 298.79,-47.5"/>
<polygon fill="#333333" stroke="#333333" points="298.96,-50.3 306.96,-47.5 298.96,-44.7 298.96,-50.3"/>
<text text-anchor="middle" x="269.5" y="-51.1" font-family="Helvetica,sans-Serif" font-size="13.00" fill="#555555">b</text>
</g>
<!-- B&#45;&gt;B -->
<g id="edge4" class="edge">
<title>B&#45;&gt;B</title>
<path fill="none" stroke="#333333" d="M200.18,-68.19C195.79,-86.5 198.89,-106 209.5,-106 218.53,-106 222.12,-91.86 220.28,-76.36"/>
<polygon fill="#333333" stroke="#333333" points="222.99,-75.57 218.82,-68.19 217.47,-76.56 222.99,-75.57"/>
<text text-anchor="middle" x="209.5" y="-109.6" font-family="Helvetica,sans-Serif" font-size="13.00" fill="#555555">a</text>
</g>
</g>
</svg>
