<?xml version="1.0" encoding="UTF-8" standalone="no"?>
<!DOCTYPE svg PUBLIC "-//W3C//DTD SVG 1.1//EN"
 "http://www.w3.org/Graphics/SVG/1.1/DTD/svg11.dtd">
<!-- Generated by graphviz version 2.43.0 (0)
 -->
<!-- Title: lab_identifier_nfa Pages: 1 -->
<svg width="247pt" height="111pt"
 viewBox="0.00 0.00 247.00 111.00" xmlns="http://www.w3.org/2000/svg" xmlns:xlink="http://www.w3.org/1999/xlink">
<g id="graph0" class="graph" transform="scale(1 1) rotate(0) translate(4 107)">
<title>lab_identifier_nfa</title>
<!-- __start -->
<!-- q0 -->
<g id="node3" class="node">
<title>q0</title>
<ellipse fill="#eeecfb" stroke="#5a4fc0" cx="89.5" cy="-26.5" rx="22.5" ry="22.5"/>
<text text-anchor="middle" x="89.5" y="-22.8" font-family="Helvetica,sans-Serif" font-weight="bold" font-size="14.00" fill="#3b3480">q0</text>
</g>
<!-- __start&#45;&gt;q0 -->
<g id="edge1" class="edge">
<title>__start&#45;&gt;q0</title>
<path fill="none" stroke="#333333" d="M1.06,-26.5C2.65,-26.5 33.83,-26.5 58.5,-26.5"/>
<polygon fill="#333333" stroke="#333333" points="58.57,-29.3 66.57,-26.5 58.57,-23.7 58.57,-29.3"/>
</g>
<!-- q1 -->
<g id="node2" class="node">
<title>q1</title>
<ellipse fill="#eeecfb" stroke="#5a4fc0" cx="212.5" cy="-26.5" rx="22.5" ry="22.5"/>
<ellipse fill="none" stroke="#5a4fc0" cx="212.5" cy="-26.5" rx="26.5" ry="26.5"/>
<text text-anchor="middle" x="212.5" y="-22.8" font-family="Helvetica,sans-Serif" font-weight="bold" font-size="14.00" fill="#3b3480">q1</text>
</g>
<!-- q1&#45;&gt;q1 -->
<g id="edge3" class="edge">
<title>q1&#45;&gt;q1</title>
<path fill="none" stroke="#333333" d="M202.31,-51.2C198.63,-69.97 202.03,-89 212.5,-89 221.42,-89 225.21,-75.2 223.86,-59.52"/>
<polygon fill="#333333" stroke="#333333" points="226.58,-58.73 222.69,-51.2 221.03,-59.52 226.58,-58.73"/>
<text text-anchor="middle" x="212.5" y="-92.6" font-family="Helvetica,sans-Serif" font-size="13.00" fill="#555555">L, D</text>
</g>
<!-- q0&#45;&gt;q1 -->
<g id="edge2" class="edge">
<title>q0&#45;&gt;q1</title>
<path fill="none" stroke="#333333" d="M112.13,-26.5C130.38,-26.5 156.8,-26.5 177.81,-26.5"/>
<polygon fill="#333333" stroke="#333333" points="177.86,-29.3 185.86,-26.5 177.86,-23.7 177.86,-29.3"/>
<text text-anchor="middle" x="149" y="-30.1" font-family="Helvetica,sans-Serif" font-size="13.00" fill="#555555">L</text>
</g>
</g>
</svg>
